999
dxfrw 0.6.3
  0
SECTION
  2
HEADER
  9
$ACADVER
  1
AC1021
  9
$DWGCODEPAGE
  3
ANSI_1252
  9
$INSBASE
 10
0
 20
0
 30
0
  9
$EXTMIN
 10
10.1051510083672
 20
-113.7154295538087
 30
0
  9
$EXTMAX
 10
110.4831850083674
 20
86.7845704461914
 30
0
  9
$LIMMIN
 10
0
 20
0
  9
$LIMMAX
 10
420
 20
297
  9
$ORTHOMODE
 70
    0
  9
$REGENMODE
 70
    1
  9
$FILLMODE
 70
    1
  9
$QTEXTMODE
 70
    0
  9
$MIRRTEXT
 70
    0
  9
$LTSCALE
 40
1
  9
$ATTMODE
 70
    0
  9
$TEXTSIZE
 40
2.5
  9
$TRACEWID
 40
15.68
  9
$TEXTSTYLE
  7
STANDARD
  9
$CLAYER
  8
0
  9
$CELTYPE
  6
BYLAYER
  9
$CECOLOR
 62
  256
  9
$CELTSCALE
 40
1
  9
$DISPSILH
 70
    0
  9
$DIMSCALE
 40
2.5
  9
$DIMASZ
 40
2.5
  9
$DIMEXO
 40
0.625
  9
$DIMDLI
 40
3.75
  9
$DIMRND
 40
0
  9
$DIMDLE
 40
0
  9
$DIMEXE
 40
1.25
  9
$DIMTP
 40
0
  9
$DIMTM
 40
0
  9
$DIMTXT
 40
2.5
  9
$DIMCEN
 40
2.5
  9
$DIMTSZ
 40
0
  9
$DIMTOL
 70
    0
  9
$DIMLIM
 70
    0
  9
$DIMTIH
 70
    0
  9
$DIMTOH
 70
    0
  9
$DIMSE1
 70
    0
  9
$DIMSE2
 70
    0
  9
$DIMTAD
 70
    1
  9
$DIMZIN
 70
    8
  9
$DIMBLK
  1

  9
$DIMASO
 70
    1
  9
$DIMSHO
 70
    1
  9
$DIMPOST
  1

  9
$DIMAPOST
  1

  9
$DIMALT
 70
    0
  9
$DIMALTD
 70
    3
  9
$DIMALTF
 40
0.03937
  9
$DIMLFAC
 40
1
  9
$DIMTOFL
 70
    1
  9
$DIMTVP
 40
0
  9
$DIMTIX
 70
    0
  9
$DIMSOXD
 70
    0
  9
$DIMSAH
 70
    0
  9
$DIMBLK1
  1

  9
$DIMBLK2
  1

  9
$DIMSTYLE
  2
STANDARD
  9
$DIMCLRD
 70
    0
  9
$DIMCLRE
 70
    0
  9
$DIMCLRT
 70
    0
  9
$DIMTFAC
 40
1
  9
$DIMGAP
 40
0.625
  9
$DIMJUST
 70
    0
  9
$DIMSD1
 70
    0
  9
$DIMSD2
 70
    0
  9
$DIMTOLJ
 70
    0
  9
$DIMTZIN
 70
    8
  9
$DIMALTZ
 70
    0
  9
$DIMALTTZ
 70
    0
  9
$DIMUPT
 70
    0
  9
$DIMDEC
 70
    2
  9
$DIMTDEC
 70
    2
  9
$DIMALTU
 70
    2
  9
$DIMALTTD
 70
    3
  9
$DIMTXSTY
  7
STANDARD
  9
$DIMAUNIT
 70
    0
  9
$DIMADEC
 70
    0
  9
$DIMALTRND
 40
0
  9
$DIMAZIN
 70
    0
  9
$DIMDSEP
 70
   44
  9
$DIMATFIT
 70
    3
  9
$DIMFRAC
 70
    0
  9
$DIMLDRBLK
  1
STANDARD
  9
$DIMLUNIT
 70
    2
  9
$DIMLWD
 70
   -2
  9
$DIMLWE
 70
   -2
  9
$DIMTMOVE
 70
    0
  9
$DIMFXL
 40
1
  9
$DIMFXLON
 70
    0
  9
$DIMJOGANG
 40
0.7854
  9
$DIMTFILL
 70
    0
  9
$DIMTFILLCLR
 70
    0
  9
$DIMARCSYM
 70
    0
  9
$DIMLTYPE
  6

  9
$DIMLTEX1
  6

  9
$DIMLTEX2
  6

  9
$LUNITS
 70
    2
  9
$LUPREC
 70
    4
  9
$SKETCHINC
 40
1
  9
$FILLETRAD
 40
0
  9
$AUNITS
 70
    0
  9
$AUPREC
 70
    2
  9
$MENU
  1
.
  9
$ELEVATION
 40
0
  9
$PELEVATION
 40
0
  9
$THICKNESS
 40
0
  9
$LIMCHECK
 70
    0
  9
$CHAMFERA
 40
0
  9
$CHAMFERB
 40
0
  9
$CHAMFERC
 40
0
  9
$CHAMFERD
 40
0
  9
$SKPOLY
 70
    0
  9
$USRTIMER
 70
    1
  9
$ANGBASE
 50
0
  9
$ANGDIR
 70
    0
  9
$PDMODE
 70
   34
  9
$PDSIZE
 40
0
  9
$PLINEWID
 40
0
  9
$SPLFRAME
 70
    0
  9
$SPLINETYPE
 70
    2
  9
$SPLINESEGS
 70
    8
  9
$HANDSEED
  5
20000
  9
$SURFTAB1
 70
    6
  9
$SURFTAB2
 70
    6
  9
$SURFTYPE
 70
    6
  9
$SURFU
 70
    6
  9
$SURFV
 70
    6
  9
$UCSBASE
  2

  9
$UCSNAME
  2

  9
$UCSORG
 10
0
 20
0
 30
0
  9
$UCSXDIR
 10
1
 20
0
 30
0
  9
$UCSYDIR
 10
0
 20
1
 30
0
  9
$UCSORTHOREF
  2

  9
$UCSORTHOVIEW
 70
    0
  9
$UCSORGTOP
 10
0
 20
0
 30
0
  9
$UCSORGBOTTOM
 10
0
 20
0
 30
0
  9
$UCSORGLEFT
 10
0
 20
0
 30
0
  9
$UCSORGRIGHT
 10
0
 20
0
 30
0
  9
$UCSORGFRONT
 10
0
 20
0
 30
0
  9
$UCSORGBACK
 10
0
 20
0
 30
0
  9
$PUCSBASE
  2

  9
$PUCSNAME
  2

  9
$PUCSORG
 10
0
 20
0
 30
0
  9
$PUCSXDIR
 10
1
 20
0
 30
0
  9
$PUCSYDIR
 10
0
 20
1
 30
0
  9
$PUCSORTHOREF
  2

  9
$PUCSORTHOVIEW
 70
    0
  9
$PUCSORGTOP
 10
0
 20
0
 30
0
  9
$PUCSORGBOTTOM
 10
0
 20
0
 30
0
  9
$PUCSORGLEFT
 10
0
 20
0
 30
0
  9
$PUCSORGRIGHT
 10
0
 20
0
 30
0
  9
$PUCSORGFRONT
 10
0
 20
0
 30
0
  9
$PUCSORGBACK
 10
0
 20
0
 30
0
  9
$USERI1
 70
    0
  9
$USERI2
 70
    0
  9
$USERI3
 70
    0
  9
$USERI4
 70
    0
  9
$USERI5
 70
    0
  9
$USERR1
 40
0
  9
$USERR2
 40
0
  9
$USERR3
 40
0
  9
$USERR4
 40
0
  9
$USERR5
 40
0
  9
$WORLDVIEW
 70
    1
  9
$SHADEDGE
 70
    3
  9
$SHADEDIF
 70
   70
  9
$TILEMODE
 70
    1
  9
$MAXACTVP
 70
   64
  9
$PINSBASE
 10
0
 20
0
 30
0
  9
$PLIMCHECK
 70
    0
  9
$PEXTMIN
 10
0
 20
0
 30
0
  9
$PEXTMAX
 10
0
 20
0
 30
0
  9
$GRIDMODE
 70
    1
  9
$SNAPSTYLE
 70
    0
  9
$PLIMMIN
 10
0
 20
0
  9
$PLIMMAX
 10
210
 20
297
  9
$UNITMODE
 70
    0
  9
$VISRETAIN
 70
    1
  9
$PLINEGEN
 70
    0
  9
$PSLTSCALE
 70
    1
  9
$TREEDEPTH
 70
 3020
  9
$CMLSTYLE
  2
Standard
  9
$CMLJUST
 70
    0
  9
$CMLSCALE
 40
20
  9
$PROXYGRAPHICS
 70
    1
  9
$MEASUREMENT
 70
    1
  9
$CELWEIGHT
370
   -1
  9
$ENDCAPS
280
    0
  9
$JOINSTYLE
280
    0
  9
$LWDISPLAY
290
    0
  9
$INSUNITS
 70
    4
  9
$HYPERLINKBASE
  1

  9
$STYLESHEET
  1

  9
$XEDIT
290
    1
  9
$CEPSNTYPE
380
    0
  9
$PSTYLEMODE
290
    1
  9
$EXTNAMES
290
    1
  9
$PSVPSCALE
 40
1
  9
$OLESTARTUP
290
    0
  9
$SORTENTS
280
  127
  9
$INDEXCTL
280
    0
  9
$HIDETEXT
280
    1
  9
$XCLIPFRAME
290
    0
  9
$HALOGAP
280
    0
  9
$OBSCOLOR
 70
  257
  9
$OBSLTYPE
280
    0
  9
$INTERSECTIONDISPLAY
280
    0
  9
$INTERSECTIONCOLOR
 70
  257
  9
$DIMASSOC
280
    1
  9
$PROJECTNAME
  1

  9
$CAMERADISPLAY
290
    0
  9
$LENSLENGTH
 40
50
  9
$CAMERAHEIGHT
 40
0
  9
$STEPSPERSEC
 40
2
  9
$STEPSIZE
 40
50
  9
$3DDWFPREC
 40
2
  9
$PSOLWIDTH
 40
5
  9
$PSOLHEIGHT
 40
80
  9
$LOFTANG1
 40
1.570796326794897
  9
$LOFTANG2
 40
1.570796326794897
  9
$LOFTMAG1
 40
0
  9
$LOFTMAG2
 40
0
  9
$LOFTPARAM
 70
    7
  9
$LOFTNORMALS
280
    1
  9
$LATITUDE
 40
1
  9
$LONGITUDE
 40
1
  9
$NORTHDIRECTION
 40
0
  9
$TIMEZONE
 70
-8000
  9
$LIGHTGLYPHDISPLAY
280
    1
  9
$TILEMODELIGHTSYNCH
280
    1
  9
$SOLIDHIST
280
    1
  9
$SHOWHIST
280
    1
  9
$DWFFRAME
280
    2
  9
$DGNFRAME
280
    0
  9
$REALWORLDSCALE
290
    1
  9
$INTERFERECOLOR
 62
    1
  9
$CSHADOW
280
    0
  9
$SHADOWPLANELOCATION
 40
0
  0
ENDSEC
  0
SECTION
  2
CLASSES
  0
ENDSEC
  0
SECTION
  2
TABLES
  0
TABLE
  2
VPORT
  5
8
330
0
100
AcDbSymbolTable
 70
    1
  0
VPORT
  5
31
330
2
100
AcDbSymbolTableRecord
100
AcDbViewportTableRecord
  2
*ACTIVE
 70
    0
 10
0
 20
0
 11
1
 21
1
 12
116.4361979166667
 22
44.29448784722225
 13
0
 23
0
 14
10
 24
10
 15
10
 25
10
 16
0
 26
0
 36
1
 17
0
 27
0
 37
0
 40
203.9809027777779
 41
1.691126279863481
 42
50
 43
0
 44
0
 50
0
 51
0
 71
    0
 72
  100
 73
    1
 74
    3
 75
    0
 76
    1
 77
    0
 78
    0
281
    0
 65
    1
110
0
120
0
130
0
111
1
121
0
131
0
112
0
122
1
132
0
 79
    0
146
0
348
10020
 60
    7
 61
    5
292
1
282
    1
141
0
142
0
 63
  250
421
3358443
  0
ENDTAB
  0
TABLE
  2
LTYPE
  5
5
330
0
100
AcDbSymbolTable
 70
    4
  0
LTYPE
  5
14
330
5
100
AcDbSymbolTableRecord
100
AcDbLinetypeTableRecord
  2
ByBlock
 70
    0
  3

 72
   65
 73
    0
 40
0
  0
LTYPE
  5
15
330
5
100
AcDbSymbolTableRecord
100
AcDbLinetypeTableRecord
  2
ByLayer
 70
    0
  3

 72
   65
 73
    0
 40
0
  0
LTYPE
  5
16
330
5
100
AcDbSymbolTableRecord
100
AcDbLinetypeTableRecord
  2
Continuous
 70
    0
  3
Solid line
 72
   65
 73
    0
 40
0
  0
LTYPE
  5
32
330
5
100
AcDbSymbolTableRecord
100
AcDbLinetypeTableRecord
  2
DOT
 70
    0
  3
Dot . . . . . . . . . . . . . . . . . . . . . .
 72
   65
 73
    2
 40
6.35
 49
0
 74
    0
 49
-6.35
 74
    0
  0
LTYPE
  5
33
330
5
100
AcDbSymbolTableRecord
100
AcDbLinetypeTableRecord
  2
DOTTINY
 70
    0
  3
Dot (.15x) .....................................
 72
   65
 73
    2
 40
0.9525
 49
0
 74
    0
 49
-0.9525
 74
    0
  0
LTYPE
  5
34
330
5
100
AcDbSymbolTableRecord
100
AcDbLinetypeTableRecord
  2
DOT2
 70
    0
  3
Dot (.5x) .....................................
 72
   65
 73
    2
 40
3.175
 49
0
 74
    0
 49
-3.175
 74
    0
  0
LTYPE
  5
35
330
5
100
AcDbSymbolTableRecord
100
AcDbLinetypeTableRecord
  2
DOTX2
 70
    0
  3
Dot (2x) .  .  .  .  .  .  .  .  .  .  .  .  .
 72
   65
 73
    2
 40
12.7
 49
0
 74
    0
 49
-12.7
 74
    0
  0
LTYPE
  5
36
330
5
100
AcDbSymbolTableRecord
100
AcDbLinetypeTableRecord
  2
DASHED
 70
    0
  3
Dashed _ _ _ _ _ _ _ _ _ _ _ _ _ _ _ _ _
 72
   65
 73
    2
 40
19.05
 49
12.7
 74
    0
 49
-6.35
 74
    0
  0
LTYPE
  5
37
330
5
100
AcDbSymbolTableRecord
100
AcDbLinetypeTableRecord
  2
DASHEDTINY
 70
    0
  3
Dashed (.15x) _ _ _ _ _ _ _ _ _ _ _ _ _ _ _ _ _
 72
   65
 73
    2
 40
2.8575
 49
1.905
 74
    0
 49
-0.9525
 74
    0
  0
LTYPE
  5
38
330
5
100
AcDbSymbolTableRecord
100
AcDbLinetypeTableRecord
  2
DASHED2
 70
    0
  3
Dashed (.5x) _ _ _ _ _ _ _ _ _ _ _ _ _ _ _ _ _
 72
   65
 73
    2
 40
9.524999999999999
 49
6.35
 74
    0
 49
-3.175
 74
    0
  0
LTYPE
  5
39
330
5
100
AcDbSymbolTableRecord
100
AcDbLinetypeTableRecord
  2
DASHEDX2
 70
    0
  3
Dashed (2x) ____  ____  ____  ____  ____  ___
 72
   65
 73
    2
 40
38.09999999999999
 49
25.4
 74
    0
 49
-12.7
 74
    0
  0
LTYPE
  5
3A
330
5
100
AcDbSymbolTableRecord
100
AcDbLinetypeTableRecord
  2
DASHDOT
 70
    0
  3
Dash dot __ . __ . __ . __ . __ . __ . __ . __
 72
   65
 73
    4
 40
25.4
 49
12.7
 74
    0
 49
-6.35
 74
    0
 49
0
 74
    0
 49
-6.35
 74
    0
  0
LTYPE
  5
3B
330
5
100
AcDbSymbolTableRecord
100
AcDbLinetypeTableRecord
  2
DASHDOTTINY
 70
    0
  3
Dash dot (.15x) _._._._._._._._._._._._._._._.
 72
   65
 73
    4
 40
3.81
 49
1.905
 74
    0
 49
-0.9525
 74
    0
 49
0
 74
    0
 49
-0.9525
 74
    0
  0
LTYPE
  5
3C
330
5
100
AcDbSymbolTableRecord
100
AcDbLinetypeTableRecord
  2
DASHDOT2
 70
    0
  3
Dash dot (.5x) _._._._._._._._._._._._._._._.
 72
   65
 73
    4
 40
12.7
 49
6.35
 74
    0
 49
-3.175
 74
    0
 49
0
 74
    0
 49
-3.175
 74
    0
  0
LTYPE
  5
3D
330
5
100
AcDbSymbolTableRecord
100
AcDbLinetypeTableRecord
  2
DASHDOTX2
 70
    0
  3
Dash dot (2x) ____  .  ____  .  ____  .  ___
 72
   65
 73
    4
 40
50.8
 49
25.4
 74
    0
 49
-12.7
 74
    0
 49
0
 74
    0
 49
-12.7
 74
    0
  0
LTYPE
  5
3E
330
5
100
AcDbSymbolTableRecord
100
AcDbLinetypeTableRecord
  2
DIVIDE
 70
    0
  3
Divide ____ . . ____ . . ____ . . ____ . . ____
 72
   65
 73
    6
 40
31.75
 49
12.7
 74
    0
 49
-6.35
 74
    0
 49
0
 74
    0
 49
-6.35
 74
    0
 49
0
 74
    0
 49
-6.35
 74
    0
  0
LTYPE
  5
3F
330
5
100
AcDbSymbolTableRecord
100
AcDbLinetypeTableRecord
  2
DIVIDETINY
 70
    0
  3
Divide (.15x) __..__..__..__..__..__..__..__.._
 72
   65
 73
    6
 40
4.7625
 49
1.905
 74
    0
 49
-0.9525
 74
    0
 49
0
 74
    0
 49
-0.9525
 74
    0
 49
0
 74
    0
 49
-0.9525
 74
    0
  0
LTYPE
  5
40
330
5
100
AcDbSymbolTableRecord
100
AcDbLinetypeTableRecord
  2
DIVIDE2
 70
    0
  3
Divide (.5x) __..__..__..__..__..__..__..__.._
 72
   65
 73
    6
 40
15.875
 49
6.35
 74
    0
 49
-3.175
 74
    0
 49
0
 74
    0
 49
-3.175
 74
    0
 49
0
 74
    0
 49
-3.175
 74
    0
  0
LTYPE
  5
41
330
5
100
AcDbSymbolTableRecord
100
AcDbLinetypeTableRecord
  2
DIVIDEX2
 70
    0
  3
Divide (2x) ________  .  .  ________  .  .  _
 72
   65
 73
    6
 40
63.5
 49
25.4
 74
    0
 49
-12.7
 74
    0
 49
0
 74
    0
 49
-12.7
 74
    0
 49
0
 74
    0
 49
-12.7
 74
    0
  0
LTYPE
  5
42
330
5
100
AcDbSymbolTableRecord
100
AcDbLinetypeTableRecord
  2
BORDER
 70
    0
  3
Border __ __ . __ __ . __ __ . __ __ . __ __ .
 72
   65
 73
    6
 40
44.45
 49
12.7
 74
    0
 49
-6.35
 74
    0
 49
12.7
 74
    0
 49
-6.35
 74
    0
 49
0
 74
    0
 49
-6.35
 74
    0
  0
LTYPE
  5
43
330
5
100
AcDbSymbolTableRecord
100
AcDbLinetypeTableRecord
  2
BORDERTINY
 70
    0
  3
Border (.15x) __.__.__.__.__.__.__.__.__.__.__.
 72
   65
 73
    6
 40
6.6675
 49
1.905
 74
    0
 49
-0.9525
 74
    0
 49
1.905
 74
    0
 49
-0.9525
 74
    0
 49
0
 74
    0
 49
-0.9525
 74
    0
  0
LTYPE
  5
44
330
5
100
AcDbSymbolTableRecord
100
AcDbLinetypeTableRecord
  2
BORDER2
 70
    0
  3
Border (.5x) __.__.__.__.__.__.__.__.__.__.__.
 72
   65
 73
    6
 40
22.225
 49
6.35
 74
    0
 49
-3.175
 74
    0
 49
6.35
 74
    0
 49
-3.175
 74
    0
 49
0
 74
    0
 49
-3.175
 74
    0
  0
LTYPE
  5
45
330
5
100
AcDbSymbolTableRecord
100
AcDbLinetypeTableRecord
  2
BORDERX2
 70
    0
  3
Border (2x) ____  ____  .  ____  ____  .  ___
 72
   65
 73
    6
 40
88.89999999999999
 49
25.4
 74
    0
 49
-12.7
 74
    0
 49
25.4
 74
    0
 49
-12.7
 74
    0
 49
0
 74
    0
 49
-12.7
 74
    0
  0
LTYPE
  5
46
330
5
100
AcDbSymbolTableRecord
100
AcDbLinetypeTableRecord
  2
CENTER
 70
    0
  3
Center ____ _ ____ _ ____ _ ____ _ ____ _ ____
 72
   65
 73
    4
 40
50.8
 49
31.75
 74
    0
 49
-6.35
 74
    0
 49
6.35
 74
    0
 49
-6.35
 74
    0
  0
LTYPE
  5
47
330
5
100
AcDbSymbolTableRecord
100
AcDbLinetypeTableRecord
  2
CENTERTINY
 70
    0
  3
Center (.15x) ___ _ ___ _ ___ _ ___ _ ___ _ ___
 72
   65
 73
    4
 40
7.619999999999999
 49
4.7625
 74
    0
 49
-0.9525
 74
    0
 49
0.9525
 74
    0
 49
-0.9525
 74
    0
  0
LTYPE
  5
48
330
5
100
AcDbSymbolTableRecord
100
AcDbLinetypeTableRecord
  2
CENTER2
 70
    0
  3
Center (.5x) ___ _ ___ _ ___ _ ___ _ ___ _ ___
 72
   65
 73
    4
 40
28.575
 49
19.05
 74
    0
 49
-3.175
 74
    0
 49
3.175
 74
    0
 49
-3.175
 74
    0
  0
LTYPE
  5
49
330
5
100
AcDbSymbolTableRecord
100
AcDbLinetypeTableRecord
  2
CENTERX2
 70
    0
  3
Center (2x) ________  __  ________  __  _____
 72
   65
 73
    4
 40
101.6
 49
63.5
 74
    0
 49
-12.7
 74
    0
 49
12.7
 74
    0
 49
-12.7
 74
    0
  0
ENDTAB
  0
TABLE
  2
LAYER
  5
2
330
0
100
AcDbSymbolTable
 70
    1
  0
LAYER
  5
10
330
2
100
AcDbSymbolTableRecord
100
AcDbLayerTableRecord
  2
0
 70
    0
 62
    7
  6
CONTINUOUS
370
    0
390
F
  0
LAYER
  5
4A
330
2
100
AcDbSymbolTableRecord
100
AcDbLayerTableRecord
  2
EXT
 70
    0
 62
    3
  6
CONTINUOUS
370
    0
390
F
  0
LAYER
  5
4B
330
2
100
AcDbSymbolTableRecord
100
AcDbLayerTableRecord
  2
INT
 70
    0
 62
    1
  6
CONTINUOUS
370
    0
390
F
  0
ENDTAB
  0
TABLE
  2
STYLE
  5
3
330
0
100
AcDbSymbolTable
 70
    3
  0
STYLE
  5
4C
330
2
100
AcDbSymbolTableRecord
100
AcDbTextStyleTableRecord
  2
Standard
 70
    0
 40
0
 41
1
 50
0
 71
    0
 42
1
  3
txt
  4

  0
ENDTAB
  0
TABLE
  2
VIEW
  5
6
330
0
100
AcDbSymbolTable
 70
    0
  0
ENDTAB
  0
TABLE
  2
UCS
  5
7
330
0
100
AcDbSymbolTable
 70
    0
  0
ENDTAB
  0
TABLE
  2
APPID
  5
9
330
0
100
AcDbSymbolTable
 70
    1
  0
APPID
  5
12
330
9
100
AcDbSymbolTableRecord
100
AcDbRegAppTableRecord
  2
ACAD
 70
    0
  0
APPID
  5
4D
330
9
100
AcDbSymbolTableRecord
100
AcDbRegAppTableRecord
  2
LibreCad
 70
    0
  0
ENDTAB
  0
TABLE
  2
DIMSTYLE
  5
A
330
0
100
AcDbSymbolTable
 70
    1
100
AcDbDimStyleTable
 71
    1
  0
DIMSTYLE
105
4E
330
A
100
AcDbSymbolTableRecord
100
AcDbDimStyleTableRecord
  2
Standard
 70
    0
 40
2.5
 41
2.5
 42
0.625
 43
0.38
 44
1.25
 45
0
 46
0
 47
0
 48
0
 49
1
140
2.5
141
0.09
142
0
143
25.4
144
1
145
0
146
1
147
0.625
148
0
 71
    0
 72
    0
 73
    0
 74
    1
 75
    0
 76
    0
 77
    0
 78
    8
 79
    0
170
    0
171
    2
172
    0
173
    0
174
    0
175
    0
176
    0
177
    0
178
    0
179
    0
271
    2
272
    4
273
    2
274
    2
275
    0
276
    0
277
    2
278
   44
279
    0
280
    0
281
    0
282
    0
283
    1
284
    0
285
    0
286
    0
288
    0
289
    3
340
STANDARD
341

371
   -2
372
   -2
  0
ENDTAB
  0
TABLE
  2
BLOCK_RECORD
  5
1
330
0
100
AcDbSymbolTable
 70
    2
  0
BLOCK_RECORD
  5
1F
330
1
100
AcDbSymbolTableRecord
100
AcDbBlockTableRecord
  2
*Model_Space
 70
    0
280
    1
281
    0
  0
BLOCK_RECORD
  5
1E
330
1
100
AcDbSymbolTableRecord
100
AcDbBlockTableRecord
  2
*Paper_Space
 70
    0
280
    1
281
    0
  0
ENDTAB
  0
ENDSEC
  0
SECTION
  2
BLOCKS
  0
BLOCK
  5
20
330
1F
100
AcDbEntity
  8
0
100
AcDbBlockBegin
  2
*Model_Space
 70
    0
 10
0
 20
0
 30
0
  3
*Model_Space
  1

  0
ENDBLK
  5
21
330
1F
100
AcDbEntity
  8
0
100
AcDbBlockEnd
  0
BLOCK
  5
1C
330
1B
100
AcDbEntity
  8
0
100
AcDbBlockBegin
  2
*Paper_Space
 70
    0
 10
0
 20
0
 30
0
  3
*Paper_Space
  1

  0
ENDBLK
  5
1D
330
1F
100
AcDbEntity
  8
0
100
AcDbBlockEnd
  0
ENDSEC
  0
SECTION
  2
ENTITIES
  0
CIRCLE
  5
4F
100
AcDbEntity
  8
INT
  6
ByLayer
 62
  256
370
   -1
100
AcDbCircle
 10
43.19050700836729
 20
62.03457044619137
 40
1.5
  0
CIRCLE
  5
50
100
AcDbEntity
  8
INT
  6
ByLayer
 62
  256
370
   -1
100
AcDbCircle
 10
100.1905070083673
 20
62.03457044619137
 40
1.5
  0
CIRCLE
  5
51
100
AcDbEntity
  8
INT
  6
ByLayer
 62
  256
370
   -1
100
AcDbCircle
 10
100.1905070083673
 20
-4.965429553808647
 40
1.5
  0
CIRCLE
  5
52
100
AcDbEntity
  8
INT
  6
ByLayer
 62
  256
370
   -1
100
AcDbCircle
 10
43.19050700836729
 20
-4.965429553808647
 40
1.5
  0
ARC
  5
53
100
AcDbEntity
  8
EXT
  6
ByLayer
 62
  256
370
   -1
100
AcDbCircle
 10
40.19050700836729
 20
68.5345704461914
 40
2
100
AcDbArc
 50
0
 51
90
  0
LINE
  5
54
100
AcDbEntity
  8
EXT
  6
ByLayer
 62
  256
370
   -1
100
AcDbLine
 10
42.19050700836729
 20
68.5345704461914
 11
101.1905070083673
 21
68.5345704461914
  0
ARC
  5
55
100
AcDbEntity
  8
EXT
  6
ByLayer
 62
  256
370
   -1
100
AcDbCircle
 10
40.19050700836729
 20
-11.46542955380863
 40
2
100
AcDbArc
 50
270
 51
360
  0
LINE
  5
56
100
AcDbEntity
  8
EXT
  6
ByLayer
 62
  256
370
   -1
100
AcDbLine
 10
101.1905070083673
 20
-11.46542955380865
 11
42.19050700836729
 21
-11.46542955380863
  0
LINE
  5
57
100
AcDbEntity
  8
INT
  6
ByLayer
 62
  256
370
   -1
100
AcDbLine
 10
37.19050700836729
 20
47.5345704461914
 11
40.19050700836729
 21
47.5345704461914
  0
LINE
  5
58
100
AcDbEntity
  8
INT
  6
ByLayer
 62
  256
370
   -1
100
AcDbLine
 10
40.19050700836729
 20
47.5345704461914
 11
40.19050700836729
 21
39.5345704461914
  0
LINE
  5
59
100
AcDbEntity
  8
INT
  6
ByLayer
 62
  256
370
   -1
100
AcDbLine
 10
40.19050700836729
 20
39.5345704461914
 11
37.19050700836729
 21
39.5345704461914
  0
LINE
  5
5A
100
AcDbEntity
  8
INT
  6
ByLayer
 62
  256
370
   -1
100
AcDbLine
 10
37.19050700836729
 20
39.5345704461914
 11
37.19050700836729
 21
47.5345704461914
  0
LINE
  5
5B
100
AcDbEntity
  8
INT
  6
ByLayer
 62
  256
370
   -1
100
AcDbLine
 10
37.19050700836729
 20
17.53457044619137
 11
40.19050700836729
 21
17.53457044619137
  0
LINE
  5
5C
100
AcDbEntity
  8
INT
  6
ByLayer
 62
  256
370
   -1
100
AcDbLine
 10
40.19050700836729
 20
17.53457044619137
 11
40.19050700836729
 21
9.534570446191367
  0
LINE
  5
5D
100
AcDbEntity
  8
INT
  6
ByLayer
 62
  256
370
   -1
100
AcDbLine
 10
40.19050700836729
 20
9.534570446191367
 11
37.19050700836729
 21
9.534570446191367
  0
LINE
  5
5E
100
AcDbEntity
  8
INT
  6
ByLayer
 62
  256
370
   -1
100
AcDbLine
 10
37.19050700836729
 20
9.534570446191367
 11
37.19050700836729
 21
17.53457044619137
  0
LINE
  5
5F
100
AcDbEntity
  8
INT
  6
ByLayer
 62
  256
370
   -1
100
AcDbLine
 10
103.1905070083673
 20
47.5345704461914
 11
106.1905070083673
 21
47.5345704461914
  0
LINE
  5
60
100
AcDbEntity
  8
INT
  6
ByLayer
 62
  256
370
   -1
100
AcDbLine
 10
106.1905070083673
 20
47.5345704461914
 11
106.1905070083673
 21
39.5345704461914
  0
LINE
  5
61
100
AcDbEntity
  8
INT
  6
ByLayer
 62
  256
370
   -1
100
AcDbLine
 10
106.1905070083673
 20
39.5345704461914
 11
103.1905070083673
 21
39.5345704461914
  0
LINE
  5
62
100
AcDbEntity
  8
INT
  6
ByLayer
 62
  256
370
   -1
100
AcDbLine
 10
103.1905070083673
 20
39.5345704461914
 11
103.1905070083673
 21
47.5345704461914
  0
LINE
  5
63
100
AcDbEntity
  8
INT
  6
ByLayer
 62
  256
370
   -1
100
AcDbLine
 10
103.1905070083673
 20
17.53457044619137
 11
106.1905070083673
 21
17.53457044619137
  0
LINE
  5
64
100
AcDbEntity
  8
INT
  6
ByLayer
 62
  256
370
   -1
100
AcDbLine
 10
106.1905070083673
 20
17.53457044619137
 11
106.1905070083673
 21
9.534570446191367
  0
LINE
  5
65
100
AcDbEntity
  8
INT
  6
ByLayer
 62
  256
370
   -1
100
AcDbLine
 10
106.1905070083673
 20
9.534570446191367
 11
103.1905070083673
 21
9.534570446191367
  0
LINE
  5
66
100
AcDbEntity
  8
INT
  6
ByLayer
 62
  256
370
   -1
100
AcDbLine
 10
103.1905070083673
 20
9.534570446191367
 11
103.1905070083673
 21
17.53457044619137
  0
ARC
  5
67
100
AcDbEntity
  8
EXT
  6
ByLayer
 62
  256
370
   -1
100
AcDbCircle
 10
34.89782900836718
 20
68.5345704461914
 40
2
100
AcDbArc
 50
90
 51
180
  0
ARC
  5
68
100
AcDbEntity
  8
EXT
  6
ByLayer
 62
  256
370
   -1
100
AcDbCircle
 10
34.89782900836718
 20
-11.46542955380863
 40
2
100
AcDbArc
 50
180
 51
270
  0
LINE
  5
69
100
AcDbEntity
  8
EXT
  6
ByLayer
 62
  256
370
   -1
100
AcDbLine
 10
32.89782900836718
 20
68.5345704461914
 11
32.89782900836718
 21
-11.46542955380863
  0
ARC
  5
6A
100
AcDbEntity
  8
INT
  6
ByLayer
 62
  256
370
   -1
100
AcDbCircle
 10
21.6551510083672
 20
55.70457044619127
 40
1.5
100
AcDbArc
 50
90
 51
180
  0
LINE
  5
6B
100
AcDbEntity
  8
INT
  6
ByLayer
 62
  256
370
   -1
100
AcDbLine
 10
20.1551510083672
 20
55.70457044619127
 11
20.1551510083672
 21
50.22457044619131
  0
ARC
  5
6C
100
AcDbEntity
  8
INT
  6
ByLayer
 62
  256
370
   -1
100
AcDbCircle
 10
21.6551510083672
 20
50.22457044619131
 40
1.5
100
AcDbArc
 50
180
 51
270
  0
LINE
  5
6D
100
AcDbEntity
  8
INT
  6
ByLayer
 62
  256
370
   -1
100
AcDbLine
 10
21.6551510083672
 20
48.72457044619131
 11
23.6551510083672
 21
48.72457044619131
  0
ARC
  5
6E
100
AcDbEntity
  8
INT
  6
ByLayer
 62
  256
370
   -1
100
AcDbCircle
 10
23.6551510083672
 20
50.22457044619131
 40
1.5
100
AcDbArc
 50
270
 51
0
  0
LINE
  5
6F
100
AcDbEntity
  8
INT
  6
ByLayer
 62
  256
370
   -1
100
AcDbLine
 10
23.6551510083672
 20
57.20457044619127
 11
21.6551510083672
 21
57.20457044619127
  0
LINE
  5
70
100
AcDbEntity
  8
INT
  6
ByLayer
 62
  256
370
   -1
100
AcDbLine
 10
25.1551510083672
 20
55.70457044619127
 11
25.1551510083672
 21
50.22457044619131
  0
ARC
  5
71
100
AcDbEntity
  8
INT
  6
ByLayer
 62
  256
370
   -1
100
AcDbCircle
 10
23.6551510083672
 20
55.70457044619127
 40
1.5
100
AcDbArc
 50
0
 51
90
  0
ARC
  5
72
100
AcDbEntity
  8
INT
  6
ByLayer
 62
  256
370
   -1
100
AcDbCircle
 10
23.6551510083672
 20
27.05457044619128
 40
1.5
100
AcDbArc
 50
0
 51
90
  0
LINE
  5
73
100
AcDbEntity
  8
INT
  6
ByLayer
 62
  256
370
   -1
100
AcDbLine
 10
23.6551510083672
 20
28.55457044619128
 11
18.6551510083672
 21
28.55457044619128
  0
ARC
  5
74
100
AcDbEntity
  8
INT
  6
ByLayer
 62
  256
370
   -1
100
AcDbCircle
 10
18.6551510083672
 20
27.05457044619128
 40
1.5
100
AcDbArc
 50
90
 51
180
  0
ARC
  5
75
100
AcDbEntity
  8
INT
  6
ByLayer
 62
  256
370
   -1
100
AcDbCircle
 10
18.6551510083672
 20
2.885170446191296
 40
1.5
100
AcDbArc
 50
180
 51
270
  0
LINE
  5
76
100
AcDbEntity
  8
INT
  6
ByLayer
 62
  256
370
   -1
100
AcDbLine
 10
18.6551510083672
 20
1.385170446191296
 11
23.6551510083672
 21
1.385170446191296
  0
ARC
  5
77
100
AcDbEntity
  8
INT
  6
ByLayer
 62
  256
370
   -1
100
AcDbCircle
 10
23.6551510083672
 20
2.885170446191296
 40
1.5
100
AcDbArc
 50
270
 51
0
  0
LINE
  5
78
100
AcDbEntity
  8
INT
  6
ByLayer
 62
  256
370
   -1
100
AcDbLine
 10
25.1551510083672
 20
27.05457044619128
 11
25.1551510083672
 21
21.29587044619129
  0
LINE
  5
79
100
AcDbEntity
  8
INT
  6
ByLayer
 62
  256
370
   -1
100
AcDbLine
 10
25.1551510083672
 20
18.29587044619129
 11
25.1551510083672
 21
11.63117044619128
  0
LINE
  5
7A
100
AcDbEntity
  8
INT
  6
ByLayer
 62
  256
370
   -1
100
AcDbLine
 10
25.1551510083672
 20
8.631170446191277
 11
25.1551510083672
 21
2.885170446191296
  0
LINE
  5
7B
100
AcDbEntity
  8
INT
  6
ByLayer
 62
  256
370
   -1
100
AcDbLine
 10
17.1551510083672
 20
27.05457044619128
 11
17.1551510083672
 21
21.29587006613568
  0
LINE
  5
7C
100
AcDbEntity
  8
INT
  6
ByLayer
 62
  256
370
   -1
100
AcDbLine
 10
17.1551510083672
 20
18.29587095173457
 11
17.15515100836721
 21
11.63117044619118
  0
LINE
  5
7D
100
AcDbEntity
  8
INT
  6
ByLayer
 62
  256
370
   -1
100
AcDbLine
 10
17.1551510083672
 20
8.631170446191277
 11
17.1551510083672
 21
2.885170446191296
  0
ARC
  5
7E
100
AcDbEntity
  8
INT
  6
ByLayer
 62
  256
370
   -1
100
AcDbCircle
 10
18.65515100836721
 20
21.29587044619129
 40
1.5
100
AcDbArc
 50
180
 51
228.5903778907287
  0
ARC
  5
7F
100
AcDbEntity
  8
INT
  6
ByLayer
 62
  256
370
   -1
100
AcDbCircle
 10
18.6551510083672
 20
18.29587044619129
 40
1.5
100
AcDbArc
 50
131.4096221092707
 51
180
  0
ARC
  5
80
100
AcDbEntity
  8
INT
  6
ByLayer
 62
  256
370
   -1
100
AcDbCircle
 10
17.33227535283491
 20
19.79587044619129
 40
0.5
100
AcDbArc
 50
311.4096221092704
 51
48.59037789072904
  0
ARC
  5
81
100
AcDbEntity
  8
INT
  6
ByLayer
 62
  256
370
   -1
100
AcDbCircle
 10
23.6551510083672
 20
21.29587044619129
 40
1.5
100
AcDbArc
 50
311.4096221092709
 51
0
  0
ARC
  5
82
100
AcDbEntity
  8
INT
  6
ByLayer
 62
  256
370
   -1
100
AcDbCircle
 10
23.6551510083672
 20
18.29587044619129
 40
1.5
100
AcDbArc
 50
0
 51
48.59037789072914
  0
ARC
  5
83
100
AcDbEntity
  8
INT
  6
ByLayer
 62
  256
370
   -1
100
AcDbCircle
 10
24.9780266638995
 20
19.79587044619129
 40
0.5
100
AcDbArc
 50
131.4096221092708
 51
228.5903778907292
  0
ARC
  5
84
100
AcDbEntity
  8
INT
  6
ByLayer
 62
  256
370
   -1
100
AcDbCircle
 10
18.65515100836721
 20
11.63117044619118
 40
1.5
100
AcDbArc
 50
180
 51
228.590377890727
  0
ARC
  5
85
100
AcDbEntity
  8
INT
  6
ByLayer
 62
  256
370
   -1
100
AcDbCircle
 10
18.6551510083672
 20
8.631170446191277
 40
1.5
100
AcDbArc
 50
131.4096221092729
 51
180
  0
ARC
  5
86
100
AcDbEntity
  8
INT
  6
ByLayer
 62
  256
370
   -1
100
AcDbCircle
 10
17.33227535283485
 20
10.13117044619122
 40
0.5
100
AcDbArc
 50
311.409622109273
 51
48.59037789072673
  0
ARC
  5
87
100
AcDbEntity
  8
INT
  6
ByLayer
 62
  256
370
   -1
100
AcDbCircle
 10
23.6551510083672
 20
11.63117044619128
 40
1.5
100
AcDbArc
 50
311.4096221092709
 51
0
  0
ARC
  5
88
100
AcDbEntity
  8
INT
  6
ByLayer
 62
  256
370
   -1
100
AcDbCircle
 10
23.6551510083672
 20
8.631170446191277
 40
1.5
100
AcDbArc
 50
0
 51
48.59037789072914
  0
ARC
  5
89
100
AcDbEntity
  8
INT
  6
ByLayer
 62
  256
370
   -1
100
AcDbCircle
 10
24.9780266638995
 20
10.13117044619128
 40
0.5
100
AcDbArc
 50
131.4096221092708
 51
228.5903778907292
  0
LINE
  5
8A
100
AcDbEntity
  8
EXT
  6
ByLayer
 62
  256
370
   -1
100
AcDbLine
 10
29.3551510083672
 20
70.5345704461914
 11
13.1051510083672
 21
70.5345704461914
  0
LINE
  5
8B
100
AcDbEntity
  8
EXT
  6
ByLayer
 62
  256
370
   -1
100
AcDbLine
 10
13.1051510083672
 20
-13.46542955380865
 11
29.3551510083672
 21
-13.46542955380865
  0
LINE
  5
8C
100
AcDbEntity
  8
EXT
  6
ByLayer
 62
  256
370
   -1
100
AcDbLine
 10
29.3551510083672
 20
47.5345704461914
 11
32.3551510083672
 21
47.5345704461914
  0
LINE
  5
8D
100
AcDbEntity
  8
EXT
  6
ByLayer
 62
  256
370
   -1
100
AcDbLine
 10
32.3551510083672
 20
47.5345704461914
 11
32.3551510083672
 21
39.5345704461914
  0
LINE
  5
8E
100
AcDbEntity
  8
EXT
  6
ByLayer
 62
  256
370
   -1
100
AcDbLine
 10
32.3551510083672
 20
39.5345704461914
 11
29.3551510083672
 21
39.5345704461914
  0
LINE
  5
8F
100
AcDbEntity
  8
EXT
  6
ByLayer
 62
  256
370
   -1
100
AcDbLine
 10
29.3551510083672
 20
47.5345704461914
 11
29.3551510083672
 21
70.5345704461914
  0
LINE
  5
90
100
AcDbEntity
  8
INT
  6
ByLayer
 62
  256
370
   -1
100
AcDbLine
 10
25.2301510083672
 20
68.5345704461914
 11
17.2301510083672
 21
68.5345704461914
  0
LINE
  5
91
100
AcDbEntity
  8
EXT
  6
ByLayer
 62
  256
370
   -1
100
AcDbLine
 10
29.3551510083672
 20
-13.46542955380865
 11
29.3551510083672
 21
9.534570446191367
  0
LINE
  5
92
100
AcDbEntity
  8
EXT
  6
ByLayer
 62
  256
370
   -1
100
AcDbLine
 10
29.3551510083672
 20
17.53457044619137
 11
32.3551510083672
 21
17.53457044619137
  0
LINE
  5
93
100
AcDbEntity
  8
EXT
  6
ByLayer
 62
  256
370
   -1
100
AcDbLine
 10
32.3551510083672
 20
17.53457044619137
 11
32.3551510083672
 21
9.534570446191367
  0
LINE
  5
94
100
AcDbEntity
  8
EXT
  6
ByLayer
 62
  256
370
   -1
100
AcDbLine
 10
32.3551510083672
 20
9.534570446191367
 11
29.3551510083672
 21
9.534570446191367
  0
LINE
  5
95
100
AcDbEntity
  8
EXT
  6
ByLayer
 62
  256
370
   -1
100
AcDbLine
 10
29.3551510083672
 20
39.5345704461914
 11
29.3551510083672
 21
17.53457044619137
  0
LINE
  5
96
100
AcDbEntity
  8
EXT
  6
ByLayer
 62
  256
370
   -1
100
AcDbLine
 10
13.1051510083672
 20
47.5345704461914
 11
10.1051510083672
 21
47.5345704461914
  0
LINE
  5
97
100
AcDbEntity
  8
EXT
  6
ByLayer
 62
  256
370
   -1
100
AcDbLine
 10
10.1051510083672
 20
47.5345704461914
 11
10.1051510083672
 21
39.5345704461914
  0
LINE
  5
98
100
AcDbEntity
  8
EXT
  6
ByLayer
 62
  256
370
   -1
100
AcDbLine
 10
10.1051510083672
 20
39.5345704461914
 11
13.1051510083672
 21
39.5345704461914
  0
LINE
  5
99
100
AcDbEntity
  8
EXT
  6
ByLayer
 62
  256
370
   -1
100
AcDbLine
 10
13.1051510083672
 20
47.5345704461914
 11
13.1051510083672
 21
70.5345704461914
  0
LINE
  5
9A
100
AcDbEntity
  8
EXT
  6
ByLayer
 62
  256
370
   -1
100
AcDbLine
 10
13.1051510083672
 20
39.5345704461914
 11
13.1051510083672
 21
17.53457044619137
  0
LINE
  5
9B
100
AcDbEntity
  8
EXT
  6
ByLayer
 62
  256
370
   -1
100
AcDbLine
 10
13.1051510083672
 20
-13.46542955380865
 11
13.1051510083672
 21
9.534570446191367
  0
LINE
  5
9C
100
AcDbEntity
  8
EXT
  6
ByLayer
 62
  256
370
   -1
100
AcDbLine
 10
13.1051510083672
 20
17.53457044619137
 11
10.1051510083672
 21
17.53457044619137
  0
LINE
  5
9D
100
AcDbEntity
  8
EXT
  6
ByLayer
 62
  256
370
   -1
100
AcDbLine
 10
10.1051510083672
 20
17.53457044619137
 11
10.1051510083672
 21
9.534570446191367
  0
LINE
  5
9E
100
AcDbEntity
  8
EXT
  6
ByLayer
 62
  256
370
   -1
100
AcDbLine
 10
10.1051510083672
 20
9.534570446191367
 11
13.1051510083672
 21
9.534570446191367
  0
LINE
  5
9F
100
AcDbEntity
  8
EXT
  6
ByLayer
 62
  256
370
   -1
100
AcDbLine
 10
40.19050700836729
 20
70.5345704461914
 11
34.89782900836718
 21
70.5345704461914
  0
LINE
  5
A0
100
AcDbEntity
  8
EXT
  6
ByLayer
 62
  256
370
   -1
100
AcDbLine
 10
34.89782900836718
 20
-13.46542955380863
 11
40.19050700836729
 21
-13.46542955380863
  0
ARC
  5
A1
100
AcDbEntity
  8
EXT
  6
ByLayer
 62
  256
370
   -1
100
AcDbCircle
 10
103.1905070083673
 20
68.5345704461914
 40
2
100
AcDbArc
 50
90
 51
180
  0
ARC
  5
A2
100
AcDbEntity
  8
EXT
  6
ByLayer
 62
  256
370
   -1
100
AcDbCircle
 10
103.1905070083673
 20
-11.46542955380863
 40
2
100
AcDbArc
 50
180
 51
270
  0
ARC
  5
A3
100
AcDbEntity
  8
EXT
  6
ByLayer
 62
  256
370
   -1
100
AcDbCircle
 10
108.4831850083674
 20
68.5345704461914
 40
2
100
AcDbArc
 50
360
 51
90
  0
ARC
  5
A4
100
AcDbEntity
  8
EXT
  6
ByLayer
 62
  256
370
   -1
100
AcDbCircle
 10
108.4831850083674
 20
-11.46542955380863
 40
2
100
AcDbArc
 50
270
 51
360
  0
LINE
  5
A5
100
AcDbEntity
  8
EXT
  6
ByLayer
 62
  256
370
   -1
100
AcDbLine
 10
110.4831850083674
 20
68.5345704461914
 11
110.4831850083674
 21
-11.46542955380863
  0
LINE
  5
A6
100
AcDbEntity
  8
EXT
  6
ByLayer
 62
  256
370
   -1
100
AcDbLine
 10
103.1905070083673
 20
70.5345704461914
 11
108.4831850083674
 21
70.5345704461914
  0
LINE
  5
A7
100
AcDbEntity
  8
EXT
  6
ByLayer
 62
  256
370
   -1
100
AcDbLine
 10
108.4831850083674
 20
-13.46542955380863
 11
103.1905070083673
 21
-13.46542955380863
  0
LINE
  5
A8
100
AcDbEntity
  8
INT
  6
ByLayer
 62
  256
370
   -1
100
AcDbLine
 10
17.2301510083672
 20
65.5345704461914
 11
25.2301510083672
 21
65.5345704461914
  0
LINE
  5
A9
100
AcDbEntity
  8
INT
  6
ByLayer
 62
  256
370
   -1
100
AcDbLine
 10
17.2301510083672
 20
68.5345704461914
 11
17.2301510083672
 21
65.5345704461914
  0
LINE
  5
AA
100
AcDbEntity
  8
INT
  6
ByLayer
 62
  256
370
   -1
100
AcDbLine
 10
25.2301510083672
 20
65.5345704461914
 11
25.2301510083672
 21
68.5345704461914
  0
LINE
  5
AB
100
AcDbEntity
  8
INT
  6
ByLayer
 62
  256
370
   -1
100
AcDbLine
 10
25.2301510083672
 20
-11.46542955380863
 11
17.2301510083672
 21
-11.46542955380863
  0
LINE
  5
AC
100
AcDbEntity
  8
INT
  6
ByLayer
 62
  256
370
   -1
100
AcDbLine
 10
17.2301510083672
 20
-8.465429553808633
 11
25.2301510083672
 21
-8.465429553808633
  0
LINE
  5
AD
100
AcDbEntity
  8
INT
  6
ByLayer
 62
  256
370
   -1
100
AcDbLine
 10
17.2301510083672
 20
-11.46542955380863
 11
17.2301510083672
 21
-8.465429553808633
  0
LINE
  5
AE
100
AcDbEntity
  8
INT
  6
ByLayer
 62
  256
370
   -1
100
AcDbLine
 10
25.2301510083672
 20
-8.465429553808633
 11
25.2301510083672
 21
-11.46542955380863
  0
ARC
  5
AF
100
AcDbEntity
  8
INT
  6
ByLayer
 62
  256
370
   -1
100
AcDbCircle
 10
83.6551510083672
 20
-16.56542955380863
 40
0.5
100
AcDbArc
 50
90
 51
180
  0
LINE
  5
B0
100
AcDbEntity
  8
INT
  6
ByLayer
 62
  256
370
   -1
100
AcDbLine
 10
93.6551510083672
 20
-16.06542955380863
 11
83.6551510083672
 21
-16.06542955380863
  0
ARC
  5
B1
100
AcDbEntity
  8
INT
  6
ByLayer
 62
  256
370
   -1
100
AcDbCircle
 10
93.6551510083672
 20
-16.56542955380863
 40
0.5
100
AcDbArc
 50
0
 51
90
  0
LINE
  5
B2
100
AcDbEntity
  8
INT
  6
ByLayer
 62
  256
370
   -1
100
AcDbLine
 10
94.1551510083672
 20
-23.56542955380863
 11
94.1551510083672
 21
-16.56542955380863
  0
ARC
  5
B3
100
AcDbEntity
  8
INT
  6
ByLayer
 62
  256
370
   -1
100
AcDbCircle
 10
93.6551510083672
 20
-23.56542955380863
 40
0.5
100
AcDbArc
 50
270
 51
0
  0
LINE
  5
B4
100
AcDbEntity
  8
INT
  6
ByLayer
 62
  256
370
   -1
100
AcDbLine
 10
83.6551510083672
 20
-24.06542955380863
 11
93.6551510083672
 21
-24.06542955380863
  0
LINE
  5
B5
100
AcDbEntity
  8
INT
  6
ByLayer
 62
  256
370
   -1
100
AcDbLine
 10
83.1551510083672
 20
-16.56542955380863
 11
83.1551510083672
 21
-23.56542955380863
  0
ARC
  5
B6
100
AcDbEntity
  8
INT
  6
ByLayer
 62
  256
370
   -1
100
AcDbCircle
 10
83.6551510083672
 20
-23.56542955380863
 40
0.5
100
AcDbArc
 50
180
 51
270
  0
LINE
  5
B7
100
AcDbEntity
  8
EXT
  6
ByLayer
 62
  256
370
   -1
100
AcDbLine
 10
40.19050700836729
 20
-17.59042955380863
 11
40.19050700836729
 21
-13.46542955380863
  0
LINE
  5
B8
100
AcDbEntity
  8
EXT
  6
ByLayer
 62
  256
370
   -1
100
AcDbLine
 10
40.19050700836729
 20
-25.59042955380863
 11
40.19050700836729
 21
-29.71542955380863
  0
LINE
  5
B9
100
AcDbEntity
  8
EXT
  6
ByLayer
 62
  256
370
   -1
100
AcDbLine
 10
103.1905070083673
 20
-17.59042955380863
 11
103.1905070083673
 21
-13.46542955380863
  0
LINE
  5
BA
100
AcDbEntity
  8
EXT
  6
ByLayer
 62
  256
370
   -1
100
AcDbLine
 10
103.1905070083673
 20
-25.59042955380863
 11
103.1905070083673
 21
-29.71542955380863
  0
LINE
  5
BB
100
AcDbEntity
  8
EXT
  6
ByLayer
 62
  256
370
   -1
100
AcDbLine
 10
37.19050700836729
 20
-25.59042955380863
 11
37.19050700836729
 21
-17.59042955380863
  0
LINE
  5
BC
100
AcDbEntity
  8
EXT
  6
ByLayer
 62
  256
370
   -1
100
AcDbLine
 10
37.19050700836729
 20
-17.59042955380863
 11
40.19050700836729
 21
-17.59042955380863
  0
LINE
  5
BD
100
AcDbEntity
  8
EXT
  6
ByLayer
 62
  256
370
   -1
100
AcDbLine
 10
37.19050700836729
 20
-25.59042955380863
 11
40.19050700836729
 21
-25.59042955380863
  0
LINE
  5
BE
100
AcDbEntity
  8
EXT
  6
ByLayer
 62
  256
370
   -1
100
AcDbLine
 10
106.1905070083673
 20
-17.59042955380863
 11
106.1905070083673
 21
-25.59042955380863
  0
LINE
  5
BF
100
AcDbEntity
  8
EXT
  6
ByLayer
 62
  256
370
   -1
100
AcDbLine
 10
103.1905070083673
 20
-17.59042955380863
 11
106.1905070083673
 21
-17.59042955380863
  0
LINE
  5
C0
100
AcDbEntity
  8
EXT
  6
ByLayer
 62
  256
370
   -1
100
AcDbLine
 10
103.1905070083673
 20
-25.59042955380863
 11
106.1905070083673
 21
-25.59042955380863
  0
LINE
  5
C1
100
AcDbEntity
  8
EXT
  6
ByLayer
 62
  256
370
   -1
100
AcDbLine
 10
40.19050700836729
 20
-13.46542955380863
 11
103.1905070083673
 21
-13.46542955380863
  0
LINE
  5
C2
100
AcDbEntity
  8
EXT
  6
ByLayer
 62
  256
370
   -1
100
AcDbLine
 10
40.19050700836729
 20
-29.71542955380863
 11
103.1905070083673
 21
-29.71542955380863
  0
CIRCLE
  5
C3
100
AcDbEntity
  8
INT
  6
ByLayer
 62
  256
370
   -1
100
AcDbCircle
 10
43.19050700836729
 20
-38.21542955380868
 40
1.5
  0
CIRCLE
  5
C4
100
AcDbEntity
  8
INT
  6
ByLayer
 62
  256
370
   -1
100
AcDbCircle
 10
100.1905070083673
 20
-38.21542955380868
 40
1.5
  0
CIRCLE
  5
C5
100
AcDbEntity
  8
INT
  6
ByLayer
 62
  256
370
   -1
100
AcDbCircle
 10
100.1905070083673
 20
-105.2154295538087
 40
1.5
  0
CIRCLE
  5
C6
100
AcDbEntity
  8
INT
  6
ByLayer
 62
  256
370
   -1
100
AcDbCircle
 10
43.19050700836729
 20
-105.2154295538087
 40
1.5
  0
LINE
  5
C7
100
AcDbEntity
  8
INT
  6
ByLayer
 62
  256
370
   -1
100
AcDbLine
 10
37.19050700836729
 20
-52.71542955380863
 11
40.19050700836729
 21
-52.71542955380863
  0
LINE
  5
C8
100
AcDbEntity
  8
INT
  6
ByLayer
 62
  256
370
   -1
100
AcDbLine
 10
40.19050700836729
 20
-52.71542955380863
 11
40.19050700836729
 21
-60.71542955380863
  0
LINE
  5
C9
100
AcDbEntity
  8
INT
  6
ByLayer
 62
  256
370
   -1
100
AcDbLine
 10
40.19050700836729
 20
-60.71542955380863
 11
37.19050700836729
 21
-60.71542955380863
  0
LINE
  5
CA
100
AcDbEntity
  8
INT
  6
ByLayer
 62
  256
370
   -1
100
AcDbLine
 10
37.19050700836729
 20
-60.71542955380863
 11
37.19050700836729
 21
-52.71542955380863
  0
LINE
  5
CB
100
AcDbEntity
  8
INT
  6
ByLayer
 62
  256
370
   -1
100
AcDbLine
 10
37.19050700836729
 20
-82.71542955380868
 11
40.19050700836729
 21
-82.71542955380868
  0
LINE
  5
CC
100
AcDbEntity
  8
INT
  6
ByLayer
 62
  256
370
   -1
100
AcDbLine
 10
40.19050700836729
 20
-82.71542955380868
 11
40.19050700836729
 21
-90.71542955380868
  0
LINE
  5
CD
100
AcDbEntity
  8
INT
  6
ByLayer
 62
  256
370
   -1
100
AcDbLine
 10
40.19050700836729
 20
-90.71542955380868
 11
37.19050700836729
 21
-90.71542955380868
  0
LINE
  5
CE
100
AcDbEntity
  8
INT
  6
ByLayer
 62
  256
370
   -1
100
AcDbLine
 10
37.19050700836729
 20
-90.71542955380868
 11
37.19050700836729
 21
-82.71542955380868
  0
LINE
  5
CF
100
AcDbEntity
  8
INT
  6
ByLayer
 62
  256
370
   -1
100
AcDbLine
 10
103.1905070083673
 20
-52.71542955380863
 11
106.1905070083673
 21
-52.71542955380863
  0
LINE
  5
D0
100
AcDbEntity
  8
INT
  6
ByLayer
 62
  256
370
   -1
100
AcDbLine
 10
106.1905070083673
 20
-52.71542955380863
 11
106.1905070083673
 21
-60.71542955380863
  0
LINE
  5
D1
100
AcDbEntity
  8
INT
  6
ByLayer
 62
  256
370
   -1
100
AcDbLine
 10
106.1905070083673
 20
-60.71542955380863
 11
103.1905070083673
 21
-60.71542955380863
  0
LINE
  5
D2
100
AcDbEntity
  8
INT
  6
ByLayer
 62
  256
370
   -1
100
AcDbLine
 10
103.1905070083673
 20
-60.71542955380863
 11
103.1905070083673
 21
-52.71542955380863
  0
LINE
  5
D3
100
AcDbEntity
  8
INT
  6
ByLayer
 62
  256
370
   -1
100
AcDbLine
 10
103.1905070083673
 20
-82.71542955380868
 11
106.1905070083673
 21
-82.71542955380868
  0
LINE
  5
D4
100
AcDbEntity
  8
INT
  6
ByLayer
 62
  256
370
   -1
100
AcDbLine
 10
106.1905070083673
 20
-82.71542955380868
 11
106.1905070083673
 21
-90.71542955380868
  0
LINE
  5
D5
100
AcDbEntity
  8
INT
  6
ByLayer
 62
  256
370
   -1
100
AcDbLine
 10
106.1905070083673
 20
-90.71542955380868
 11
103.1905070083673
 21
-90.71542955380868
  0
LINE
  5
D6
100
AcDbEntity
  8
INT
  6
ByLayer
 62
  256
370
   -1
100
AcDbLine
 10
103.1905070083673
 20
-90.71542955380868
 11
103.1905070083673
 21
-82.71542955380868
  0
ARC
  5
D7
100
AcDbEntity
  8
EXT
  6
ByLayer
 62
  256
370
   -1
100
AcDbCircle
 10
40.19050700836729
 20
-31.71542955380863
 40
2
100
AcDbArc
 50
0
 51
90
  0
LINE
  5
D8
100
AcDbEntity
  8
EXT
  6
ByLayer
 62
  256
370
   -1
100
AcDbLine
 10
42.19050700836729
 20
-31.71542955380863
 11
101.1905070083673
 21
-31.71542955380863
  0
ARC
  5
D9
100
AcDbEntity
  8
EXT
  6
ByLayer
 62
  256
370
   -1
100
AcDbCircle
 10
40.19050700836729
 20
-111.7154295538087
 40
2
100
AcDbArc
 50
270
 51
360
  0
LINE
  5
DA
100
AcDbEntity
  8
EXT
  6
ByLayer
 62
  256
370
   -1
100
AcDbLine
 10
101.1905070083673
 20
-111.7154295538087
 11
42.19050700836729
 21
-111.7154295538087
  0
ARC
  5
DB
100
AcDbEntity
  8
EXT
  6
ByLayer
 62
  256
370
   -1
100
AcDbCircle
 10
34.89782900836718
 20
-31.71542955380863
 40
2
100
AcDbArc
 50
90
 51
180
  0
ARC
  5
DC
100
AcDbEntity
  8
EXT
  6
ByLayer
 62
  256
370
   -1
100
AcDbCircle
 10
34.89782900836718
 20
-111.7154295538087
 40
2
100
AcDbArc
 50
180
 51
270
  0
LINE
  5
DD
100
AcDbEntity
  8
EXT
  6
ByLayer
 62
  256
370
   -1
100
AcDbLine
 10
32.89782900836718
 20
-31.71542955380863
 11
32.89782900836718
 21
-111.7154295538087
  0
LINE
  5
DE
100
AcDbEntity
  8
EXT
  6
ByLayer
 62
  256
370
   -1
100
AcDbLine
 10
40.19050700836729
 20
-29.71542955380863
 11
34.89782900836718
 21
-29.71542955380863
  0
LINE
  5
DF
100
AcDbEntity
  8
EXT
  6
ByLayer
 62
  256
370
   -1
100
AcDbLine
 10
34.89782900836718
 20
-113.7154295538087
 11
40.19050700836729
 21
-113.7154295538087
  0
ARC
  5
E0
100
AcDbEntity
  8
EXT
  6
ByLayer
 62
  256
370
   -1
100
AcDbCircle
 10
103.1905070083673
 20
-31.71542955380863
 40
2
100
AcDbArc
 50
90
 51
180
  0
ARC
  5
E1
100
AcDbEntity
  8
EXT
  6
ByLayer
 62
  256
370
   -1
100
AcDbCircle
 10
103.1905070083673
 20
-111.7154295538087
 40
2
100
AcDbArc
 50
180
 51
270
  0
ARC
  5
E2
100
AcDbEntity
  8
EXT
  6
ByLayer
 62
  256
370
   -1
100
AcDbCircle
 10
108.4831850083674
 20
-31.71542955380863
 40
2
100
AcDbArc
 50
360
 51
90
  0
ARC
  5
E3
100
AcDbEntity
  8
EXT
  6
ByLayer
 62
  256
370
   -1
100
AcDbCircle
 10
108.4831850083674
 20
-111.7154295538087
 40
2
100
AcDbArc
 50
270
 51
360
  0
LINE
  5
E4
100
AcDbEntity
  8
EXT
  6
ByLayer
 62
  256
370
   -1
100
AcDbLine
 10
110.4831850083674
 20
-31.71542955380863
 11
110.4831850083674
 21
-111.7154295538087
  0
LINE
  5
E5
100
AcDbEntity
  8
EXT
  6
ByLayer
 62
  256
370
   -1
100
AcDbLine
 10
103.1905070083673
 20
-29.71542955380863
 11
108.4831850083674
 21
-29.71542955380863
  0
LINE
  5
E6
100
AcDbEntity
  8
EXT
  6
ByLayer
 62
  256
370
   -1
100
AcDbLine
 10
108.4831850083674
 20
-113.7154295538087
 11
103.1905070083673
 21
-113.7154295538087
  0
LINE
  5
E7
100
AcDbEntity
  8
EXT
  6
ByLayer
 62
  256
370
   -1
100
AcDbLine
 10
29.35515100836719
 20
-13.46542955380865
 11
13.1051510083672
 21
-13.46542955380865
  0
LINE
  5
E8
100
AcDbEntity
  8
EXT
  6
ByLayer
 62
  256
370
   -1
100
AcDbLine
 10
13.1051510083672
 20
-97.46542955380869
 11
29.35515100836719
 21
-97.46542955380869
  0
LINE
  5
E9
100
AcDbEntity
  8
EXT
  6
ByLayer
 62
  256
370
   -1
100
AcDbLine
 10
29.35515100836719
 20
-36.46542955380865
 11
32.35515100836719
 21
-36.46542955380865
  0
LINE
  5
EA
100
AcDbEntity
  8
EXT
  6
ByLayer
 62
  256
370
   -1
100
AcDbLine
 10
32.35515100836719
 20
-36.46542955380865
 11
32.35515100836719
 21
-44.46542955380865
  0
LINE
  5
EB
100
AcDbEntity
  8
EXT
  6
ByLayer
 62
  256
370
   -1
100
AcDbLine
 10
32.35515100836719
 20
-44.46542955380865
 11
29.35515100836719
 21
-44.46542955380865
  0
LINE
  5
EC
100
AcDbEntity
  8
EXT
  6
ByLayer
 62
  256
370
   -1
100
AcDbLine
 10
29.35515100836719
 20
-36.46542955380865
 11
29.35515100836719
 21
-13.46542955380865
  0
LINE
  5
ED
100
AcDbEntity
  8
EXT
  6
ByLayer
 62
  256
370
   -1
100
AcDbLine
 10
29.35515100836719
 20
-97.46542955380869
 11
29.35515100836719
 21
-74.46542955380868
  0
LINE
  5
EE
100
AcDbEntity
  8
EXT
  6
ByLayer
 62
  256
370
   -1
100
AcDbLine
 10
29.35515100836719
 20
-66.46542955380868
 11
32.35515100836719
 21
-66.46542955380868
  0
LINE
  5
EF
100
AcDbEntity
  8
EXT
  6
ByLayer
 62
  256
370
   -1
100
AcDbLine
 10
32.35515100836719
 20
-66.46542955380868
 11
32.35515100836719
 21
-74.46542955380868
  0
LINE
  5
F0
100
AcDbEntity
  8
EXT
  6
ByLayer
 62
  256
370
   -1
100
AcDbLine
 10
32.35515100836719
 20
-74.46542955380868
 11
29.35515100836719
 21
-74.46542955380868
  0
LINE
  5
F1
100
AcDbEntity
  8
EXT
  6
ByLayer
 62
  256
370
   -1
100
AcDbLine
 10
29.35515100836719
 20
-44.46542955380865
 11
29.35515100836719
 21
-66.46542955380868
  0
LINE
  5
F2
100
AcDbEntity
  8
EXT
  6
ByLayer
 62
  256
370
   -1
100
AcDbLine
 10
13.1051510083672
 20
-36.46542955380865
 11
10.1051510083672
 21
-36.46542955380865
  0
LINE
  5
F3
100
AcDbEntity
  8
EXT
  6
ByLayer
 62
  256
370
   -1
100
AcDbLine
 10
10.1051510083672
 20
-36.46542955380865
 11
10.1051510083672
 21
-44.46542955380865
  0
LINE
  5
F4
100
AcDbEntity
  8
EXT
  6
ByLayer
 62
  256
370
   -1
100
AcDbLine
 10
10.1051510083672
 20
-44.46542955380865
 11
13.1051510083672
 21
-44.46542955380865
  0
LINE
  5
F5
100
AcDbEntity
  8
EXT
  6
ByLayer
 62
  256
370
   -1
100
AcDbLine
 10
13.1051510083672
 20
-36.46542955380865
 11
13.1051510083672
 21
-13.46542955380865
  0
LINE
  5
F6
100
AcDbEntity
  8
EXT
  6
ByLayer
 62
  256
370
   -1
100
AcDbLine
 10
13.1051510083672
 20
-44.46542955380865
 11
13.1051510083672
 21
-66.46542955380868
  0
LINE
  5
F7
100
AcDbEntity
  8
EXT
  6
ByLayer
 62
  256
370
   -1
100
AcDbLine
 10
13.1051510083672
 20
-97.46542955380869
 11
13.1051510083672
 21
-74.46542955380868
  0
LINE
  5
F8
100
AcDbEntity
  8
EXT
  6
ByLayer
 62
  256
370
   -1
100
AcDbLine
 10
13.1051510083672
 20
-66.46542955380868
 11
10.1051510083672
 21
-66.46542955380868
  0
LINE
  5
F9
100
AcDbEntity
  8
EXT
  6
ByLayer
 62
  256
370
   -1
100
AcDbLine
 10
10.1051510083672
 20
-66.46542955380868
 11
10.1051510083672
 21
-74.46542955380868
  0
LINE
  5
FA
100
AcDbEntity
  8
EXT
  6
ByLayer
 62
  256
370
   -1
100
AcDbLine
 10
10.1051510083672
 20
-74.46542955380868
 11
13.1051510083672
 21
-74.46542955380868
  0
LINE
  5
FB
100
AcDbEntity
  8
INT
  6
ByLayer
 62
  256
370
   -1
100
AcDbLine
 10
25.2301510083672
 20
-15.46542955380865
 11
17.2301510083672
 21
-15.46542955380865
  0
LINE
  5
FC
100
AcDbEntity
  8
INT
  6
ByLayer
 62
  256
370
   -1
100
AcDbLine
 10
17.2301510083672
 20
-18.46542955380865
 11
25.2301510083672
 21
-18.46542955380865
  0
LINE
  5
FD
100
AcDbEntity
  8
INT
  6
ByLayer
 62
  256
370
   -1
100
AcDbLine
 10
17.2301510083672
 20
-15.46542955380865
 11
17.2301510083672
 21
-18.46542955380865
  0
LINE
  5
FE
100
AcDbEntity
  8
INT
  6
ByLayer
 62
  256
370
   -1
100
AcDbLine
 10
25.2301510083672
 20
-18.46542955380865
 11
25.2301510083672
 21
-15.46542955380865
  0
LINE
  5
FF
100
AcDbEntity
  8
INT
  6
ByLayer
 62
  256
370
   -1
100
AcDbLine
 10
25.2301510083672
 20
-95.46542955380868
 11
17.2301510083672
 21
-95.46542955380868
  0
LINE
  5
100
100
AcDbEntity
  8
INT
  6
ByLayer
 62
  256
370
   -1
100
AcDbLine
 10
17.2301510083672
 20
-92.46542955380868
 11
25.2301510083672
 21
-92.46542955380868
  0
LINE
  5
101
100
AcDbEntity
  8
INT
  6
ByLayer
 62
  256
370
   -1
100
AcDbLine
 10
17.2301510083672
 20
-95.46542955380868
 11
17.2301510083672
 21
-92.46542955380868
  0
LINE
  5
102
100
AcDbEntity
  8
INT
  6
ByLayer
 62
  256
370
   -1
100
AcDbLine
 10
25.2301510083672
 20
-92.46542955380868
 11
25.2301510083672
 21
-95.46542955380868
  0
ARC
  5
103
100
AcDbEntity
  8
INT
  6
ByLayer
 62
  256
370
   -1
100
AcDbCircle
 10
57.27550700836727
 20
83.2845704461914
 40
3.5
100
AcDbArc
 50
359.9999854166927
 51
4.385562762165316e-05
  0
ARC
  5
104
100
AcDbEntity
  8
INT
  6
ByLayer
 62
  256
370
   -1
100
AcDbCircle
 10
57.27550700836727
 20
81.5345704461914
 40
3.5
100
AcDbArc
 50
180
 51
359.9999854166927
  0
LINE
  5
105
100
AcDbEntity
  8
INT
  6
ByLayer
 62
  256
370
   -1
100
AcDbLine
 10
53.77550700836727
 20
81.5345704461914
 11
53.77550700836727
 21
86.7845704461914
  0
LINE
  5
106
100
AcDbEntity
  8
INT
  6
ByLayer
 62
  256
370
   -1
100
AcDbLine
 10
60.77550700836715
 20
81.53456955534779
 11
60.77550700836715
 21
86.7845704461914
  0
ARC
  5
107
100
AcDbEntity
  8
INT
  6
ByLayer
 62
  256
370
   -1
100
AcDbCircle
 10
83.47550700836729
 20
81.5345704461914
 40
3.5
100
AcDbArc
 50
180
 51
359.9999854166927
  0
LINE
  5
108
100
AcDbEntity
  8
INT
  6
ByLayer
 62
  256
370
   -1
100
AcDbLine
 10
79.97550700836729
 20
81.5345704461914
 11
79.97550700836729
 21
86.7845704461914
  0
LINE
  5
109
100
AcDbEntity
  8
INT
  6
ByLayer
 62
  256
370
   -1
100
AcDbLine
 10
86.97550700836717
 20
81.53456955534779
 11
86.97550700836717
 21
86.7845704461914
  0
LINE
  5
10A
100
AcDbEntity
  8
EXT
  6
ByLayer
 62
  256
370
   -1
100
AcDbLine
 10
40.19050700836729
 20
82.6595704461914
 11
40.19050700836729
 21
86.7845704461914
  0
LINE
  5
10B
100
AcDbEntity
  8
EXT
  6
ByLayer
 62
  256
370
   -1
100
AcDbLine
 10
40.19050700836729
 20
74.6595704461914
 11
40.19050700836729
 21
70.5345704461914
  0
LINE
  5
10C
100
AcDbEntity
  8
EXT
  6
ByLayer
 62
  256
370
   -1
100
AcDbLine
 10
103.1905070083673
 20
82.6595704461914
 11
103.1905070083673
 21
86.7845704461914
  0
LINE
  5
10D
100
AcDbEntity
  8
EXT
  6
ByLayer
 62
  256
370
   -1
100
AcDbLine
 10
103.1905070083673
 20
74.6595704461914
 11
103.1905070083673
 21
70.5345704461914
  0
LINE
  5
10E
100
AcDbEntity
  8
EXT
  6
ByLayer
 62
  256
370
   -1
100
AcDbLine
 10
40.19050700836729
 20
86.7845704461914
 11
103.1905070083673
 21
86.7845704461914
  0
LINE
  5
10F
100
AcDbEntity
  8
EXT
  6
ByLayer
 62
  256
370
   -1
100
AcDbLine
 10
40.19050700836729
 20
70.5345704461914
 11
103.1905070083673
 21
70.5345704461914
  0
LINE
  5
110
100
AcDbEntity
  8
EXT
  6
ByLayer
 62
  256
370
   -1
100
AcDbLine
 10
37.19050700836729
 20
74.6595704461914
 11
37.19050700836729
 21
82.6595704461914
  0
LINE
  5
111
100
AcDbEntity
  8
EXT
  6
ByLayer
 62
  256
370
   -1
100
AcDbLine
 10
37.19050700836729
 20
82.6595704461914
 11
40.19050700836729
 21
82.6595704461914
  0
LINE
  5
112
100
AcDbEntity
  8
EXT
  6
ByLayer
 62
  256
370
   -1
100
AcDbLine
 10
37.19050700836729
 20
74.6595704461914
 11
40.19050700836729
 21
74.6595704461914
  0
LINE
  5
113
100
AcDbEntity
  8
EXT
  6
ByLayer
 62
  256
370
   -1
100
AcDbLine
 10
106.1905070083673
 20
82.6595704461914
 11
106.1905070083673
 21
74.6595704461914
  0
LINE
  5
114
100
AcDbEntity
  8
EXT
  6
ByLayer
 62
  256
370
   -1
100
AcDbLine
 10
103.1905070083673
 20
82.6595704461914
 11
106.1905070083673
 21
82.6595704461914
  0
LINE
  5
115
100
AcDbEntity
  8
EXT
  6
ByLayer
 62
  256
370
   -1
100
AcDbLine
 10
103.1905070083673
 20
74.6595704461914
 11
106.1905070083673
 21
74.6595704461914
  0
ENDSEC
  0
SECTION
  2
OBJECTS
  0
DICTIONARY
  5
C
330
0
100
AcDbDictionary
281
    1
  3
ACAD_GROUP
350
D
  0
DICTIONARY
  5
D
330
C
100
AcDbDictionary
281
    1
  0
ENDSEC
  0
EOF
